<svg xmlns="http://www.w3.org/2000/svg" viewBox="0 0 64 64">
  <circle cx="32" cy="32" r="32" fill="#155e8d"/>
  <path d="M 8 36 C 12 26 24 20 36 20 C 46 20 54 25 57 30 C 59 33 58 35 54 36 C 44 40 28 42 18 40 C 11 38 7 38 8 36 Z" fill="#1d242e"/>
  <path d="M 52 32 C 56 27 60 24 63 23 C 61 27 61 30 62 32 C 61 34 61 37 63 41 C 59 39 54 35 52 34 Z" fill="#141a22"/>
  <path d="M 30 21 C 30 13 33 7 37 5 C 36 11 37 17 40 21 Z" fill="#141a22"/>
  <path d="M 9 37 C 14 32 22 30 29 32 C 34 33 37 36 38 39 C 38 41 36 42 32 42 C 23 42 13 40 9 37 Z" fill="#eef3f7"/>
  <ellipse cx="22" cy="27" rx="5" ry="2" fill="#f2f7fa" transform="rotate(-15 22 27)"/>
  <circle cx="19" cy="31" r="1.8" fill="#0c0f13"/>
</svg>
